<?xml version="1.0" encoding="UTF-8"?>
<!DOCTYPE svg PUBLIC "-//W3C//DTD SVG 1.1//EN" "http://www.w3.org/Graphics/SVG/1.1/DTD/svg11.dtd">
<svg version="1.1" xmlns="http://www.w3.org/2000/svg" xmlns:xlink="http://www.w3.org/1999/xlink" x="0" y="0" width="48" height="48" viewBox="0, 0, 48, 48">
  <g id="Background">
    <rect x="0" y="0" width="48" height="48" fill="#FFFFFF"/>
  </g>
  <g id="Layer_1">
    <path d="M24.66,17.451 C23.27,17.317 21.872,17.605 20.656,18.273 C19.441,18.942 18.468,19.959 17.871,21.185 C17.274,22.412 17.081,23.788 17.32,25.125 C17.559,26.462 18.217,27.694 19.204,28.654 C20.192,29.613 21.46,30.253 22.836,30.485 C24.212,30.716 25.628,30.529 26.891,29.949 C28.153,29.369 29.2,28.423 29.888,27.243 C30.576,26.062 30.872,24.703 30.735,23.353 C30.578,21.839 29.888,20.425 28.781,19.349 C27.674,18.273 26.218,17.603 24.66,17.451 z M40.969,24 C40.965,24.715 40.911,25.43 40.807,26.138 L45.592,29.784 C45.8,29.952 45.941,30.186 45.988,30.445 C46.036,30.704 45.987,30.971 45.851,31.198 L41.325,38.808 C41.187,39.033 40.972,39.204 40.718,39.29 C40.463,39.377 40.186,39.373 39.934,39.28 L35.182,37.421 C34.92,37.319 34.636,37.283 34.356,37.314 C34.076,37.346 33.808,37.444 33.576,37.601 C32.851,38.086 32.089,38.517 31.297,38.89 C31.048,39.008 30.832,39.183 30.669,39.401 C30.506,39.619 30.401,39.872 30.363,40.138 L29.651,45.063 C29.604,45.323 29.466,45.559 29.259,45.731 C29.053,45.903 28.792,46.001 28.521,46.006 L19.467,46.006 C19.2,46.002 18.942,45.909 18.737,45.743 C18.531,45.577 18.39,45.348 18.336,45.094 L17.625,40.177 C17.585,39.907 17.477,39.651 17.311,39.432 C17.144,39.213 16.925,39.037 16.672,38.92 C15.881,38.549 15.121,38.117 14.401,37.627 C14.17,37.471 13.903,37.374 13.624,37.343 C13.345,37.312 13.062,37.35 12.802,37.451 L8.051,39.31 C7.799,39.403 7.521,39.407 7.267,39.32 C7.012,39.234 6.798,39.064 6.66,38.839 L2.133,31.229 C1.997,31.002 1.949,30.735 1.996,30.476 C2.044,30.217 2.184,29.983 2.393,29.815 L6.437,26.73 C6.658,26.559 6.832,26.337 6.943,26.085 C7.054,25.832 7.098,25.556 7.072,25.282 C7.034,24.854 7.01,24.426 7.01,23.997 C7.01,23.568 7.032,23.146 7.072,22.727 C7.095,22.455 7.049,22.181 6.937,21.931 C6.825,21.681 6.65,21.462 6.429,21.293 L2.387,18.209 C2.182,18.04 2.045,17.807 1.999,17.549 C1.953,17.292 2.002,17.028 2.136,16.802 L6.663,9.192 C6.801,8.967 7.015,8.796 7.27,8.71 C7.524,8.623 7.802,8.627 8.054,8.72 L12.806,10.579 C13.068,10.681 13.352,10.717 13.632,10.686 C13.912,10.655 14.18,10.556 14.411,10.399 C15.137,9.914 15.899,9.483 16.691,9.11 C16.94,8.992 17.156,8.817 17.319,8.599 C17.481,8.381 17.586,8.128 17.625,7.862 L18.337,2.937 C18.384,2.677 18.522,2.44 18.728,2.269 C18.934,2.097 19.195,1.999 19.467,1.994 L28.521,1.994 C28.788,1.998 29.045,2.091 29.251,2.257 C29.457,2.423 29.598,2.652 29.652,2.906 L30.363,7.823 C30.403,8.093 30.511,8.349 30.677,8.568 C30.843,8.787 31.063,8.963 31.316,9.08 C32.107,9.451 32.867,9.883 33.587,10.373 C33.818,10.529 34.084,10.626 34.364,10.657 C34.643,10.688 34.925,10.65 35.186,10.548 L39.937,8.69 C40.189,8.597 40.466,8.593 40.721,8.679 C40.975,8.766 41.19,8.936 41.328,9.161 L45.855,16.771 C45.991,16.998 46.039,17.265 45.992,17.524 C45.944,17.783 45.804,18.017 45.595,18.185 L41.551,21.27 C41.329,21.44 41.153,21.662 41.042,21.915 C40.93,22.167 40.885,22.444 40.911,22.718 C40.946,23.143 40.969,23.571 40.969,24 z" fill-opacity="0" stroke="#000000" stroke-width="4" stroke-linecap="round" stroke-linejoin="round"/>
  </g>
</svg>
