<?xml version="1.0" encoding="UTF-8"?>
<!DOCTYPE svg PUBLIC "-//W3C//DTD SVG 1.1//EN" "http://www.w3.org/Graphics/SVG/1.1/DTD/svg11.dtd">
<svg version="1.1" xmlns="http://www.w3.org/2000/svg" xmlns:xlink="http://www.w3.org/1999/xlink" x="0" y="0" width="48" height="48" viewBox="0, 0, 48, 48">
  <g id="Background">
    <rect x="0" y="0" width="48" height="48" fill="#FFFFFF"/>
  </g>
  <g id="Layer_1">
    <path d="M24.643,17.487 C23.3,17.354 21.949,17.64 20.775,18.305 C19.601,18.97 18.661,19.981 18.084,21.201 C17.507,22.421 17.321,23.789 17.552,25.118 C17.782,26.448 18.418,27.674 19.372,28.628 C20.326,29.582 21.552,30.218 22.882,30.448 C24.211,30.679 25.579,30.493 26.799,29.916 C28.019,29.339 29.03,28.399 29.695,27.225 C30.36,26.051 30.646,24.699 30.513,23.357 C30.362,21.851 29.695,20.445 28.625,19.375 C27.555,18.305 26.149,17.638 24.643,17.487 z M40.402,24 C40.397,24.711 40.345,25.422 40.245,26.126 L44.868,29.752 C45.07,29.919 45.205,30.152 45.251,30.409 C45.297,30.667 45.25,30.932 45.119,31.158 L40.745,38.726 C40.612,38.95 40.405,39.119 40.159,39.205 C39.913,39.291 39.645,39.287 39.402,39.195 L34.81,37.346 C34.557,37.245 34.283,37.209 34.012,37.24 C33.741,37.271 33.482,37.369 33.259,37.525 C32.558,38.008 31.822,38.436 31.056,38.807 C30.815,38.924 30.607,39.099 30.45,39.315 C30.292,39.532 30.191,39.784 30.154,40.049 L29.466,44.946 C29.421,45.205 29.287,45.44 29.088,45.611 C28.889,45.782 28.636,45.878 28.374,45.884 L19.626,45.884 C19.368,45.879 19.119,45.787 18.92,45.622 C18.722,45.457 18.585,45.23 18.533,44.977 L17.846,40.087 C17.807,39.819 17.703,39.564 17.543,39.346 C17.382,39.128 17.17,38.953 16.926,38.837 C16.161,38.468 15.427,38.038 14.731,37.552 C14.508,37.397 14.25,37.299 13.981,37.269 C13.711,37.238 13.438,37.275 13.186,37.377 L8.595,39.225 C8.352,39.317 8.084,39.321 7.838,39.235 C7.592,39.15 7.385,38.98 7.252,38.756 L2.878,31.189 C2.747,30.963 2.7,30.697 2.745,30.44 C2.791,30.183 2.927,29.95 3.129,29.783 L7.036,26.715 C7.25,26.545 7.418,26.324 7.525,26.073 C7.633,25.822 7.675,25.547 7.649,25.275 C7.613,24.849 7.59,24.423 7.59,23.997 C7.59,23.57 7.612,23.151 7.649,22.734 C7.672,22.464 7.628,22.192 7.519,21.943 C7.411,21.694 7.242,21.476 7.029,21.309 L3.123,18.241 C2.925,18.073 2.792,17.841 2.748,17.585 C2.704,17.33 2.751,17.066 2.881,16.842 L7.255,9.274 C7.388,9.05 7.595,8.881 7.841,8.795 C8.087,8.709 8.355,8.712 8.598,8.805 L13.19,10.654 C13.443,10.755 13.717,10.791 13.988,10.76 C14.259,10.729 14.518,10.631 14.741,10.475 C15.442,9.992 16.178,9.564 16.944,9.193 C17.185,9.076 17.393,8.901 17.55,8.685 C17.708,8.468 17.809,8.216 17.846,7.951 L18.534,3.054 C18.579,2.795 18.713,2.56 18.912,2.389 C19.111,2.218 19.364,2.122 19.626,2.116 L28.374,2.116 C28.632,2.121 28.881,2.213 29.079,2.378 C29.278,2.543 29.415,2.77 29.467,3.023 L30.154,7.913 C30.192,8.181 30.297,8.436 30.457,8.654 C30.618,8.872 30.83,9.047 31.074,9.163 C31.839,9.532 32.573,9.962 33.269,10.448 C33.492,10.603 33.75,10.7 34.019,10.731 C34.289,10.762 34.562,10.724 34.814,10.623 L39.405,8.775 C39.648,8.683 39.916,8.679 40.162,8.765 C40.408,8.85 40.615,9.02 40.748,9.244 L45.122,16.811 C45.253,17.037 45.3,17.302 45.255,17.56 C45.209,17.817 45.073,18.05 44.871,18.217 L40.964,21.285 C40.749,21.454 40.58,21.675 40.472,21.926 C40.364,22.178 40.32,22.452 40.345,22.725 C40.379,23.148 40.402,23.573 40.402,24 z" fill-opacity="0" stroke="#000000" stroke-width="4" stroke-linecap="round" stroke-linejoin="round"/>
  </g>
</svg>
