<?xml version="1.0" encoding="UTF-8"?>
<!DOCTYPE svg PUBLIC "-//W3C//DTD SVG 1.1//EN" "http://www.w3.org/Graphics/SVG/1.1/DTD/svg11.dtd">
<svg version="1.1" xmlns="http://www.w3.org/2000/svg" xmlns:xlink="http://www.w3.org/1999/xlink" x="0" y="0" width="512" height="512" viewBox="0, 0, 512, 512">
  <g id="Background">
    <rect x="0" y="0" width="512" height="512" fill="#000000" fill-opacity="0"/>
  </g>
  <g id="Layer_1">
    <path d="M173.977,381.703 C189.559,392.552 207.49,399.726 226.037,403.518 L226.037,512 C179.509,506.976 133.141,488.706 96.89,458.791 L173.977,381.703 z" fill="#0E66C8"/>
    <path d="M340.364,382.207 L416.473,458.315 C379.781,488.118 333.787,507.232 286.75,512 L286.75,403.988 C305.876,400.537 324.259,393.085 340.364,382.207 z" fill="#0E66C8"/>
    <path d="M109.659,286.831 C113.159,305.419 120.696,323.207 131.271,338.861 L54.053,416.08 C24.356,379.552 4.757,333.761 -0,286.832 L109.659,286.831 z" fill="#0E66C8"/>
    <path d="M512,287.119 C506.89,333.589 488.262,379.632 458.422,415.792 L382.536,339.905 C393.626,324.129 400.943,305.956 404.794,287.119 L512,287.119 z" fill="#0E66C8"/>
    <path d="M458.579,96.496 L462.563,101.325 C489.593,138.22 507.271,181.071 511.895,226.694 L404.905,226.694 C401.458,207.254 393.673,188.765 382.641,172.434 L458.579,96.496 z" fill="#95E1F6"/>
    <path d="M53.791,96.209 L130.363,172.781 C118.929,188.955 112.079,207.71 108.139,226.981 L-0,226.981 C4.872,179.732 23.454,132.969 53.791,96.209 z" fill="#0E66C8"/>
    <path d="M286.175,0 C333.367,4.954 379.805,23.9 416.473,54.159 L340.415,130.217 C324.229,118.776 305.455,111.955 286.175,108.013 L286.175,0 z" fill="#0E66C8"/>
    <path d="M226.325,0.525 L226.325,108.424 C207.221,111.927 189.24,119.988 173.209,130.816 L96.602,54.21 C133.295,24.408 179.289,5.294 226.325,0.526 z" fill="#0E66C8"/>
    <path d="M310.187,256.001 C310.187,285.234 286.489,308.932 257.256,308.932 C228.023,308.932 204.325,285.234 204.325,256.001 C204.325,226.768 228.023,203.069 257.256,203.069 C286.489,203.069 310.187,226.768 310.187,256.001 z" fill="#0E66C8"/>
  </g>
</svg>
